# xmcd CD database file
# Copyright (C) 1997 Ti Kan
# 
# Track frame offsets:
#     150
#     20737
#     33835
#     45335
#     61082
#     83150
#     94117
#     106652
#     123535
#     137200
# 
# Disc length: 1985 seconds
# 
# Revision: 1
# Processed by: cddbd v1.4b41PL1 Copyright (c) Steve Scherf et al.
# Submitted via: DiscPlay 4.0.3
# 
DISCID=7707bf0a
DTITLE=Aaron Tippin - Call Of The Wild
DYEAR=1900
DGENRE=
TTITLE0=The Call Of The Wild
TTITLE1=Honky-Tonk Superman
TTITLE2=Nothin' In The World
TTITLE3=Working Man's Ph.D.
TTITLE4=I Promised You The World
TTITLE5=When Country Took The Throne
TTITLE6=Let's Talk About You
TTITLE7=Whole Lotta Love On The Line
TTITLE8=My Kind Of Town
TTITLE9=Trim Yourself To Fit The World
EXTD=
EXTT0=
EXTT1=
EXTT2=
EXTT3=
EXTT4=
EXTT5=
EXTT6=
EXTT7=
EXTT8=
EXTT9=
PLAYORDER=
